# Blender 4.0.2
# www.blender.org
mtllib car.mtl
o Cube
v 0.631845 0.186905 0.429283
v 0.824033 0.186905 0.429283
v 0.631845 0.116827 0.293504
v 0.824033 0.116827 0.293504
v 0.631845 -0.040635 0.259970
v 0.824033 -0.040635 0.259970
v 0.631845 -0.166910 0.353932
v 0.824033 -0.166910 0.353932
v 0.631845 -0.166910 0.504634
v 0.824033 -0.166910 0.504634
v 0.631845 -0.040635 0.598596
v 0.824033 -0.040635 0.598596
v 0.631845 0.116827 0.565062
v 0.824033 0.116827 0.565062
v 0.623494 0.168766 -0.410354
v 0.813476 0.168766 -0.410354
v 0.623494 0.103354 -0.546184
v 0.813476 0.103354 -0.546184
v 0.623494 -0.043625 -0.579731
v 0.813476 -0.043626 -0.579731
v 0.623494 -0.161494 -0.485734
v 0.813476 -0.161494 -0.485734
v 0.623494 -0.161494 -0.334975
v 0.813476 -0.161494 -0.334975
v 0.623494 -0.043625 -0.240978
v 0.813476 -0.043626 -0.240978
v 0.623494 0.103354 -0.274525
v 0.813476 0.103354 -0.274525
v -0.574353 0.168766 -0.410354
v -0.384371 0.168766 -0.410354
v -0.574353 0.103354 -0.546184
v -0.384371 0.103354 -0.546184
v -0.574353 -0.043625 -0.579731
v -0.384371 -0.043626 -0.579731
v -0.574353 -0.161494 -0.485734
v -0.384371 -0.161494 -0.485734
v -0.574353 -0.161494 -0.334975
v -0.384371 -0.161494 -0.334975
v -0.574353 -0.043625 -0.240978
v -0.384371 -0.043626 -0.240978
v -0.574353 0.103354 -0.274525
v -0.384371 0.103354 -0.274525
v -0.579909 -0.166910 0.354077
v -0.579909 -0.040635 0.260115
v -0.579909 0.116827 0.293650
v -0.579909 0.186905 0.429428
v -0.579912 0.186905 0.429283
v -0.387725 0.186905 0.429283
v -0.579912 0.116827 0.293504
v -0.387725 0.116827 0.293504
v -0.579912 -0.040635 0.259970
v -0.387725 -0.040635 0.259970
v -0.579912 -0.166910 0.353932
v -0.387725 -0.166910 0.353932
v -0.579912 -0.166910 0.504634
v -0.387725 -0.166910 0.504634
v -0.579912 -0.040635 0.598596
v -0.387725 -0.040635 0.598596
v -0.579912 0.116827 0.565062
v -0.387725 0.116827 0.565062
v -0.579909 -0.166910 0.504780
v -0.579909 -0.040635 0.598742
v -0.579909 0.116827 0.565207
v 0.121752 0.313053 -1.000000
v 0.121752 0.456437 -0.501488
v 0.620264 0.313053 -0.501488
v 0.121752 -0.118810 -0.501488
v 0.121752 0.024574 -1.000000
v 0.620264 0.024574 -0.501488
v 0.620264 0.313053 0.501488
v 0.121752 0.456437 1.000000
v 0.620264 0.024574 0.501488
v 0.121752 -0.118810 1.000000
v 0.116897 0.313053 -1.000000
v -0.381615 0.313053 -0.501488
v 0.116897 0.456437 -0.501488
v -0.381615 0.024574 -0.501488
v 0.116897 0.024574 -1.000000
v 0.116897 -0.118810 -0.501488
v -0.381615 0.313053 0.501488
v 0.116897 0.456437 1.000000
v 0.116897 -0.118810 1.000000
v -0.381615 0.024574 0.501488
vn -0.0000 -1.0000 -0.0000
vn -1.0000 -0.0000 -0.0000
vn -0.0000 -0.0000 1.0000
vn -0.0000 1.0000 -0.0000
vn 1.0000 -0.0000 -0.0000
vn -0.0000 0.8886 -0.4586
vn -0.0000 0.2083 -0.9781
vn -0.0000 -0.5970 -0.8023
vn -0.0000 -0.5970 0.8023
vn -0.0000 0.2083 0.9781
vn -0.0000 0.8886 0.4586
vn -0.0000 0.9010 -0.4339
vn -0.0000 0.2225 -0.9749
vn -0.0000 -0.6235 -0.7818
vn -0.0000 -0.6235 0.7818
vn -0.0000 0.2225 0.9749
vn -0.0000 0.9010 0.4339
vn 0.2664 0.9263 -0.2664
vn 0.2664 -0.9263 -0.2664
vn -0.2664 0.9263 -0.2664
vn -0.2664 -0.9263 -0.2664
vn -0.2764 -0.9610 -0.0000
vn -0.0000 -0.9610 -0.2764
vn 0.7071 -0.0000 -0.7071
vn -0.7071 -0.0000 0.7071
vn 0.7071 -0.0000 0.7071
vn -0.7071 -0.0000 -0.7071
vn 0.2764 0.9610 -0.0000
vn -0.2764 0.9610 -0.0000
vn -0.0000 0.9610 -0.2764
vn 0.2764 -0.9610 -0.0000
vn -0.0000 -0.0000 -1.0000
vt 0.249394 0.562314
vt 0.250606 0.562314
vt 0.250606 0.750000
vt 0.249394 0.750000
vt 0.437314 0.062314
vt 0.562686 0.062314
vt 0.562686 0.187686
vt 0.437314 0.187686
vt 0.375000 0.874394
vt 0.625000 0.874394
vt 0.625000 0.875606
vt 0.375000 0.875606
vt 0.749394 0.562314
vt 0.750606 0.562314
vt 0.750606 0.750000
vt 0.749394 0.750000
vt 0.437314 0.562314
vt 0.562686 0.562314
vt 0.562686 0.687686
vt 0.437314 0.687686
vt 1.000000 0.500000
vt 1.000000 1.000000
vt 0.857143 1.000000
vt 0.857143 0.500000
vt 0.714286 1.000000
vt 0.714286 0.500000
vt 0.571429 1.000000
vt 0.571429 0.500000
vt 0.428571 1.000000
vt 0.428571 0.500000
vt 0.285714 1.000000
vt 0.285714 0.500000
vt 0.437640 0.399638
vt 0.250000 0.490000
vt 0.062360 0.399638
vt 0.016017 0.196595
vt 0.145868 0.033767
vt 0.354132 0.033767
vt 0.483983 0.196595
vt 0.142857 1.000000
vt 0.142857 0.500000
vt 0.000000 1.000000
vt 0.000000 0.500000
vt 0.750000 0.490000
vt 0.937640 0.399638
vt 0.983983 0.196595
vt 0.854132 0.033767
vt 0.645868 0.033767
vt 0.516017 0.196595
vt 0.562360 0.399638
vt 0.562686 0.375606
vt 0.625000 0.375606
vt 0.562686 0.500000
vt 0.375000 0.375606
vt 0.437314 0.375606
vt 0.437314 0.500000
vt 0.562686 0.250000
vt 0.625000 0.187686
vt 0.437314 0.250000
vt 0.375000 0.187686
vt 0.375000 0.000000
vt 0.375000 0.374394
vt 0.437314 0.374394
vt 0.625000 0.000000
vt 0.562686 0.374394
vt 0.625000 0.374394
vt 0.625000 0.375606
s 0
usemtl Material
f 79/1/1 67/2/1 73/3/1 82/4/1
f 83/5/2 80/6/2 75/7/2 77/8/2
f 73/9/3 71/10/3 81/11/3 82/12/3
f 65/13/4 76/14/4 81/15/4 71/16/4
f 69/17/5 66/18/5 70/19/5 72/20/5
f 1/21/6 2/22/6 4/23/6 3/24/6
f 3/24/7 4/23/7 6/25/7 5/26/7
f 5/26/8 6/25/8 8/27/8 7/28/8
f 7/28/1 8/27/1 10/29/1 9/30/1
f 9/30/9 10/29/9 12/31/9 11/32/9
f 4/33/5 2/34/5 14/35/5 12/36/5 10/37/5 8/38/5 6/39/5
f 11/32/10 12/31/10 14/40/10 13/41/10
f 13/41/11 14/40/11 2/42/11 1/43/11
f 1/44/2 3/45/2 5/46/2 7/47/2 9/48/2 11/49/2 13/50/2
f 15/21/12 16/22/12 18/23/12 17/24/12
f 17/24/13 18/23/13 20/25/13 19/26/13
f 19/26/14 20/25/14 22/27/14 21/28/14
f 21/28/1 22/27/1 24/29/1 23/30/1
f 23/30/15 24/29/15 26/31/15 25/32/15
f 18/33/5 16/34/5 28/35/5 26/36/5 24/37/5 22/38/5 20/39/5
f 25/32/16 26/31/16 28/40/16 27/41/16
f 27/41/17 28/40/17 16/42/17 15/43/17
f 15/44/2 17/45/2 19/46/2 21/47/2 23/48/2 25/49/2 27/50/2
f 29/21/12 30/22/12 32/23/12 31/24/12
f 31/24/13 32/23/13 34/25/13 33/26/13
f 33/26/14 34/25/14 36/27/14 35/28/14
f 35/28/1 36/27/1 38/29/1 37/30/1
f 37/30/15 38/29/15 40/31/15 39/32/15
f 32/33/5 30/34/5 42/35/5 40/36/5 38/37/5 36/38/5 34/39/5
f 39/32/16 40/31/16 42/40/16 41/41/16
f 41/41/17 42/40/17 30/42/17 29/43/17
f 29/44/2 31/45/2 33/46/2 35/47/2 37/48/2 39/49/2 41/50/2
f 46/44/2 45/45/2 44/46/2 43/47/2 61/48/2 62/49/2 63/50/2
f 47/21/6 48/22/6 50/23/6 49/24/6
f 49/24/7 50/23/7 52/25/7 51/26/7
f 51/26/8 52/25/8 54/27/8 53/28/8
f 53/28/1 54/27/1 56/29/1 55/30/1
f 55/30/9 56/29/9 58/31/9 57/32/9
f 50/33/5 48/34/5 60/35/5 58/36/5 56/37/5 54/38/5 52/39/5
f 57/32/10 58/31/10 60/40/10 59/41/10
f 59/41/11 60/40/11 48/42/11 47/43/11
f 64/51/18 65/52/18 66/53/18
f 67/54/19 68/55/19 69/56/19
f 74/57/20 75/7/20 76/58/20
f 77/8/21 78/59/21 79/60/21
f 79/60/22 82/61/22 83/5/22 77/8/22
f 67/54/23 79/62/23 78/63/23 68/55/23
f 66/18/24 69/17/24 68/55/24 64/51/24
f 82/61/25 81/64/25 80/6/25 83/5/25
f 71/10/26 73/9/26 72/20/26 70/19/26
f 74/65/27 78/63/27 77/8/27 75/7/27
f 65/13/28 71/16/28 70/19/28 66/18/28
f 81/64/29 76/58/29 75/7/29 80/6/29
f 76/66/30 65/67/30 64/51/30 74/65/30
f 73/3/31 67/2/31 69/17/31 72/20/31
f 78/63/32 74/65/32 64/51/32 68/55/32
