# Blender 4.0.2
# www.blender.org
mtllib sign.mtl
o Plane
v -0.000000 2.345318 0.375000
v 0.000000 1.345318 0.375000
v -0.000000 2.345318 -0.375000
v 0.000000 1.345318 -0.375000
v 0.010000 2.345318 -0.375000
v 0.010000 2.345318 0.375000
v 0.010000 1.345318 0.375000
v 0.010000 1.345318 -0.375000
v 0.000000 1.345456 0.021290
v -0.000000 -0.000000 0.021290
v 0.000000 1.345456 -0.021290
v -0.000000 -0.000000 -0.021290
v 0.010000 1.345456 -0.021290
v 0.010000 1.345456 0.021290
v 0.010000 -0.000000 0.021290
v 0.010000 -0.000000 -0.021290
vn -1.0000 -0.0000 -0.0000
vn 1.0000 -0.0000 -0.0000
vn -0.0000 -0.0000 -1.0000
vn -0.0000 -0.0000 1.0000
vn -0.0000 -1.0000 -0.0000
vn -0.0000 1.0000 -0.0000
vt 0.896968 0.695085
vt 0.625142 0.680131
vt 0.626323 0.217772
vt 0.896032 0.212334
vt 0.625286 0.679072
vt 0.626078 0.219630
vt 0.897365 0.207818
vt 0.894449 0.698282
vt 1.000000 1.000000
vt 0.000000 1.000000
vt 0.000000 0.000000
vt 1.000000 0.000000
vt 0.748324 -0.000312
vt 0.748324 0.205796
vt 0.762789 0.205796
vt 0.762789 -0.000312
vt 0.750000 0.000000
vt 0.762897 0.000000
vt 0.762897 0.204310
vt 0.750000 0.204310
s 0
usemtl Material.002
f 1/1/1 3/2/1 4/3/1 2/4/1
f 6/5/2 7/6/2 8/7/2 5/8/2
f 4/9/3 3/10/3 5/10/3 8/9/3
f 1/11/4 2/12/4 7/12/4 6/11/4
f 2/12/5 4/9/5 8/9/5 7/12/5
f 3/10/6 1/11/6 6/11/6 5/10/6
f 9/13/1 11/14/1 12/15/1 10/16/1
f 14/17/2 15/18/2 16/19/2 13/20/2
f 10/12/5 12/9/5 16/9/5 15/12/5
f 11/10/6 9/11/6 14/11/6 13/10/6
f 12/9/3 11/10/3 13/10/3 16/9/3
f 9/13/4 10/16/4 15/18/4 14/17/4
